<?xml version="1.0" encoding="utf-8"?>
<!-- Generator: Adobe Illustrator 26.0.1, SVG Export Plug-In . SVG Version: 6.00 Build 0)  -->
<svg version="1.1" id="Layer_1" xmlns="http://www.w3.org/2000/svg" xmlns:xlink="http://www.w3.org/1999/xlink" x="0px" y="0px"
	 viewBox="0 0 300 84" style="enable-background:new 0 0 300 84;" xml:space="preserve">
<style type="text/css">
	.st0{fill:#FFFFFF;}
	.st1{fill:#010101;stroke:#FFFFFF;stroke-miterlimit:10;}
	.st2{fill:url(#SVGID_1_);}
	.st3{fill:url(#SVGID_00000137839873414527163970000003346800454416919217_);}
	.st4{fill:url(#SVGID_00000064325802215869459040000017409643106733469585_);}
	.st5{fill:none;stroke:#000000;stroke-width:0.5;stroke-miterlimit:10;}
</style>
<rect className="st0" width="300" height="84"/>
<g>
	<circle className="st1" cx="96.4" cy="29.9" r="25.1"/>
	<g>
		
			<linearGradient id="SVGID_1_" gradientUnits="userSpaceOnUse" x1="77.4559" y1="54.4617" x2="117.9035" y2="55.0346" gradientTransform="matrix(1 0 0 -1 0 84.1102)">
			<stop  offset="2.590000e-02" style="stop-color:#F5F088"/>
			<stop  offset="0.1037" style="stop-color:#D8B842"/>
			<stop  offset="0.4041" style="stop-color:#F2DE64"/>
			<stop  offset="0.5022" style="stop-color:#A48335"/>
			<stop  offset="0.6741" style="stop-color:#BD9D3A"/>
			<stop  offset="0.703" style="stop-color:#C0A13D"/>
			<stop  offset="0.7327" style="stop-color:#C7AB49"/>
			<stop  offset="0.7627" style="stop-color:#D1BB5F"/>
			<stop  offset="0.793" style="stop-color:#DFD17D"/>
			<stop  offset="0.8232" style="stop-color:#F2ECA0"/>
			<stop  offset="0.8265" style="stop-color:#F4F0A5"/>
			<stop  offset="0.9376" style="stop-color:#D4AB34"/>
			<stop  offset="0.9473" style="stop-color:#D4AB34"/>
			<stop  offset="1" style="stop-color:#9E6D32"/>
		</linearGradient>
		<path className="st2" d="M99.3,12.1H88.9v28.4h9.9c6.1,0,10.9-4.9,11-11c0.1-5.6-5.7-10.5-12-10.1h-5l0,3.2l6.3,0
			c3.2-0.1,7.4,2.7,7.4,6.9s-3.4,7.6-7.6,7.6h-6.5V15.5h7.1c7.7,0,13.9,6.3,13.9,13.9S107,43.3,99.3,43.3h-14v0L82,43.4v3.3h17.3
			c9.5,0,17.3-7.8,17.3-17.3C116.6,19.9,108.8,12.1,99.3,12.1z"/>
		<g>
			
				<linearGradient id="SVGID_00000003794364279544048900000007236685841354799500_" gradientUnits="userSpaceOnUse" x1="81.8641" y1="68.82" x2="87.7015" y2="68.82" gradientTransform="matrix(1 0 0 -1 0 84.1102)">
				<stop  offset="2.590000e-02" style="stop-color:#FAF289"/>
				<stop  offset="0.1037" style="stop-color:#DABA45"/>
				<stop  offset="0.4041" style="stop-color:#F2DE64"/>
				<stop  offset="0.5022" style="stop-color:#A6832E"/>
				<stop  offset="0.6741" style="stop-color:#BE9F39"/>
				<stop  offset="0.7027" style="stop-color:#C1A13D"/>
				<stop  offset="0.7321" style="stop-color:#C9AC49"/>
				<stop  offset="0.7619" style="stop-color:#D2BB5E"/>
				<stop  offset="0.7919" style="stop-color:#DFD17C"/>
				<stop  offset="0.8218" style="stop-color:#F1EB9F"/>
				<stop  offset="0.8265" style="stop-color:#F4F0A6"/>
				<stop  offset="0.9376" style="stop-color:#D6AA29"/>
				<stop  offset="0.9473" style="stop-color:#D6AA29"/>
				<stop  offset="1" style="stop-color:#9E6B28"/>
			</linearGradient>
			<path style="fill:url(#SVGID_00000003794364279544048900000007236685841354799500_);" d="M87.7,12.1v6.4h-1.1v-2.8l-1.9,2.8
				l-1.9-2.8v2.8h-1.1v-6.4l2.9,4.4L87.7,12.1z"/>
		</g>
		<g>
			
				<linearGradient id="SVGID_00000088839724279013193040000005967328448951052184_" gradientUnits="userSpaceOnUse" x1="102.3813" y1="60.9668" x2="92.4452" y2="47.032" gradientTransform="matrix(1 0 0 -1 0 84.1102)">
				<stop  offset="0" style="stop-color:#BA9738"/>
				<stop  offset="0.1507" style="stop-color:#A57D2D"/>
				<stop  offset="0.4298" style="stop-color:#F1DD7F"/>
				<stop  offset="0.5909" style="stop-color:#FBF2A9"/>
				<stop  offset="0.7264" style="stop-color:#F1DD7F"/>
				<stop  offset="0.9257" style="stop-color:#A57D2D"/>
				<stop  offset="0.9299" style="stop-color:#A8802D"/>
				<stop  offset="1" style="stop-color:#BF9D3E"/>
			</linearGradient>
			<path style="fill:url(#SVGID_00000088839724279013193040000005967328448951052184_);" d="M103.3,28.3
				C103.3,28.3,103.3,28.3,103.3,28.3C103.3,28.3,103.4,28.3,103.3,28.3C103.4,28.3,103.4,28.3,103.3,28.3
				C103.4,28.2,103.3,28.2,103.3,28.3C103.3,28.2,103.3,28.2,103.3,28.3C103.3,28.2,103.3,28.2,103.3,28.3
				C103.3,28.2,103.3,28.2,103.3,28.3L103.3,28.3l-1.2-1.6c0,0,0,0,0,0l0,0c0,0,0,0,0,0c0,0,0,0,0,0l-1.7-0.7c0,0,0,0,0,0h-3.6
				c0,0,0,0,0,0l-1.6,0.7c0,0,0,0,0,0c0,0,0,0,0,0c0,0,0,0,0,0c0,0,0,0,0,0l-1.1,1.5c0,0,0,0,0,0c0,0,0,0,0,0c0,0,0,0,0,0
				c0,0,0,0,0,0c0,0,0,0,0,0c0,0,0,0,0,0c0,0,0,0,0,0c0,0,0,0,0,0c0,0,0,0,0,0c0,0,0,0,0,0l4.5,6.2c0,0,0,0,0,0c0,0,0,0,0,0
				c0,0,0,0,0,0c0,0,0,0,0,0c0,0,0,0,0,0c0,0,0,0,0,0c0,0,0,0,0,0c0,0,0,0,0,0l0,0c0,0,0,0,0,0c0,0,0,0,0,0c0,0,0,0,0,0c0,0,0,0,0,0
				c0,0,0,0,0,0c0,0,0,0,0,0c0,0,0,0,0,0L103.3,28.3C103.3,28.3,103.3,28.3,103.3,28.3C103.3,28.3,103.3,28.3,103.3,28.3z
				 M95.3,26.9l1.4,0.7l-0.4,1.6l-2-0.9L95.3,26.9z M102.1,26.9l1,1.4l-2,0.9l-0.6-1.6L102.1,26.9z M100.4,27.6l0.6,1.6h-4.4
				l0.4-1.6H100.4z M101,29.4l-2.2,4.8l-2.2-4.8H101z M96.4,29.4l1.9,4.3l-3.8-5.2L96.4,29.4z M101.2,29.4l1.8-0.9l-3.7,5.1
				L101.2,29.4z M96.9,26.1h3.5l1.5,0.6l-1.5,0.6h-3.5l-1.4-0.6L96.9,26.1z"/>
		</g>
	</g>
</g>
<g>
	<path d="M82,60.3l0.1-0.1h11.7l0.6,1.3l-0.1,0.1h-2.4l0,3.4l-0.2,0.2c-0.8,0-1.5,0-2.3,0c-1.7,0-3,0.3-3.6,0.8
		c-0.4,0.4-0.6,0.8-0.6,1.2c0,0.6,0.2,1.1,0.6,1.5c1.1-0.9,2.3-1.5,3.8-1.5c1.1,0,1.9,0.4,2.5,1c0.6,0.6,1,1.5,1,2.3
		c0,1.2-1,2.1-2.5,2.8h-0.1c-0.4-0.4-0.8-0.8-1.3-1.4c1.5-0.7,2.7-1.4,2.7-2.3c0-0.5-0.4-1-1.5-1c-1.3,0-4.1,1.1-4.1,3.2
		c0,2.5,3.1,3.6,7.2,4l-1,1.6h-0.1c-4.8-1.2-7.7-3.2-7.7-6.3c0-0.7,0.2-1.3,0.6-1.9c-1.1-1-1.7-2-1.7-3c0-0.9,0.4-1.6,1.1-2.1
		c0.7-0.4,1.9-0.6,3.6-0.6H90c0.2,0,0.4-0.1,0.4-0.3v-1.7h-7.8L82,60.3z"/>
	<path d="M86.4,74.9c1.6,2.3,3.2,3.7,4.8,3.7c0.9,0,2.2-0.7,2.2-1.6c0-0.5-0.3-0.9-0.9-0.9c-0.7,0-1.3,0.3-1.8,0.8h-0.1l-0.9-1.4
		c0.6-0.5,1.3-0.9,2.1-0.9c0.9,0,1.6,0.4,2.1,1.4c0.3,0.5,0.5,1.1,0.5,1.7c0,1.6-1.4,2.4-2.5,2.4c-1.9,0-3.9-1.3-6-4.5v-0.1
		L86.4,74.9z"/>
	<path d="M93.1,60.3l0.1-0.1h12.2l0.6,1.3l-0.1,0.1h-2.4l0.1,12.2l-0.1,0.1l-1.5-0.4l0.1-6.8c-0.6-0.1-1.3-0.1-2-0.1
		c-0.9,0-1.6,0.1-2.2,0.3v1c0,0.6-0.1,1-0.1,1.1c-0.2,0.3-0.5,0.5-0.9,0.5c-0.6,0-2.3-1.8-2.3-2.9c0-0.5,0.3-0.9,0.9-1.2
		c0.7-0.3,1.6-0.4,2.5-0.4c1.2,0,2.6,0.1,4,0.3v-3.7h-8.4L93.1,60.3z"/>
	<path d="M104.9,60.3l0.1-0.1h9.5l0.6,1.3l-0.1,0.1h-3.2c0.1,0.7,0.2,1.5,0.2,2.2c0,2.3-1.2,3.7-2.9,4.6c1.1,1.3,2.9,2.6,5.1,3.8
		l-0.9,1.7h-0.2c-2.3-1.8-4.1-3.6-5.4-5.4c-0.6-0.9-1-1.7-1-2.2c0-0.3,0.1-0.5,0.2-0.7c0.2-0.3,0.6-0.4,1.3-0.4c0.6,0,1.2,0,1.7,0.1
		c0.3-0.5,0.4-1.2,0.4-2c0-0.5,0-1.1-0.1-1.6h-4.7L104.9,60.3z"/>
	<path d="M120.8,60.3l0.1-0.1h14l0.6,1.3l-0.1,0.1H133l0.1,12.2l-0.1,0.1l-1.5-0.4l0.1-5.2c-0.6,0.1-1.1,0.2-1.7,0.2
		c-1.1,0-2.4-0.3-3.8-1c-0.4,0.8-0.9,1.3-1.4,1.7c1.2,1.4,2.9,2.5,4.7,3.5l-0.9,1.7h-0.1c-2.3-1.9-4.1-3.7-5.1-5.3
		c-0.5-0.9-0.9-1.7-0.9-2.2c0-0.3,0.3-1.1,1.2-1.1c0.3,0,0.8,0.1,1.2,0.1c0.2-0.5,0.2-1.2,0.2-2c0-0.9-0.1-1.8-0.2-2.4h-3.3
		L120.8,60.3z M126.1,61.6c0.2,1.1,0.3,2.2,0.3,3.2c0,0.6,0,1.1-0.2,1.7c0.8,0.3,1.6,0.4,2.4,0.4c0.9,0,1.8-0.1,2.8-0.3v-5H126.1z"
		/>
	<path d="M131.8,60.4c-0.4-0.9-0.8-1.8-1.2-2.7c-0.8-1.5-1.2-2.2-2.7-2.2c-0.8,0-1.6,0.1-2.3,0.3l-0.1-0.1l-0.7-1.8
		c0.7-0.2,1.6-0.3,2.6-0.3c2.5,0,3,1.6,5.6,6.6l-0.1,0.1L131.8,60.4L131.8,60.4z"/>
	<path d="M146.1,60.3l0.1-0.1h15.3l0.6,1.3l-0.1,0.1h-2.4l0.1,12.2l-0.1,0.1l-1.5-0.4l0.1-11.9h-3.6c0.9,0.9,1.3,1.9,1.3,2.9
		c0,1.8-1.4,3.2-3.6,4.5c1.2,1.5,2.6,2.6,4.1,3.4l-0.7,1.8h-0.1c-1.9-1.3-3.3-2.9-4.4-4.8c-0.6,0.2-1.2,0.3-1.7,0.3
		c-0.4,0-0.8-0.3-1.3-1c-0.2-0.4-0.4-0.7-0.4-0.9c0-0.5,0.4-0.9,1.3-0.9c0.8,0,1.5,0.2,2.3,0.6c0.4-0.2,0.8-0.4,1.2-0.8
		c-2.1-1.3-3.6-2.6-3.6-4.2c0-0.3,0.1-0.7,0.2-1h-2.3L146.1,60.3z M150.5,63.3c0,1.3,1.1,2.1,2.8,2.6c0.7-0.7,1.1-1.4,1.1-2.4
		c0-1.1-0.8-2.1-1.9-2.1C151.3,61.5,150.5,62.3,150.5,63.3z"/>
	<path d="M140.7,60.3l0.1-0.1h2.6c-0.5-0.7-0.8-1.4-0.8-2.3c0-1.9,1.5-3.7,4.4-3.7c3,0,5.8,1.7,8.5,4.8l-0.5,0.7H155
		c-2.2-2.4-4.5-4-7.1-4c-2.4,0-3.8,1.4-3.8,3c0,0.7,0.2,1.1,0.4,1.5h2.1l0.6,1.3l-0.1,0.1h-2.4l0.1,12.2l-0.1,0.1l-1.5-0.4l0-11.9
		h-1.9L140.7,60.3z"/>
	<path d="M159.9,60.3l0.1-0.1h16.5l0.6,1.3l-0.1,0.1h-2.4l0.1,12.2l-0.1,0.1l-1.5-0.4l0.1-3.6c-0.5,0.3-1,0.5-1.7,0.5
		c-2.1,0-4.4-1.9-4.4-4.2c0-1.6,1.1-2.9,3.1-2.9c0.9,0,1.9,0.2,3,0.6v-2.3h-7.6c0.1,0.8,0.1,1.7,0.1,2.5c0,2.1-0.8,3.3-2,4.3
		c1.1,1.3,3.1,2.5,5.5,3.8l-0.9,1.8h-0.1c-2.4-1.7-4.3-3.4-5.6-5c-0.8-1-1.3-1.9-1.3-2.5c0-0.7,0.3-1.1,1.1-1.1c0.4,0,0.9,0,1.3,0.1
		c0.2-0.6,0.3-1.3,0.3-2.2c0-0.5,0-1-0.1-1.5h-3.6L159.9,60.3z M173.2,65c-0.6-0.1-1.2-0.2-1.7-0.2c-1.8,0-2.9,1.1-2.9,2.3
		c0,1.1,1,1.9,2.1,1.9c1.3,0,2.5-0.8,2.5-2L173.2,65L173.2,65z"/>
	<path d="M175.9,60.3l0.1-0.1h9.5l0.6,1.3l-0.1,0.1h-3.2c0.1,0.7,0.2,1.5,0.2,2.2c0,2.3-1.2,3.7-2.9,4.6c1.1,1.3,2.9,2.6,5.1,3.8
		l-0.9,1.7h-0.2c-2.3-1.8-4.1-3.6-5.4-5.4c-0.6-0.9-1-1.7-1-2.2c0-0.3,0.1-0.5,0.2-0.7c0.2-0.3,0.6-0.4,1.3-0.4c0.6,0,1.2,0,1.7,0.1
		c0.3-0.5,0.4-1.2,0.4-2c0-0.5,0-1.1-0.1-1.6h-4.7L175.9,60.3z"/>
	<path d="M190.5,60.3l0.1-0.1H203l0.6,1.3l-0.1,0.1h-2.4l0.1,12.2l-0.1,0.1l-1.5-0.4l0.1-7.8c-0.6,0-1.3,0-2,0c-2.9,0-4,1-4,2.2
		c0,1.4,1.3,2.9,3.7,4.4l-1.1,1.6H196c-2.5-2.3-3.8-4.6-3.8-6.7c0-2,1.1-3.2,4.5-3.2c1,0,2,0,2.9,0.1v-2.5h-8.5L190.5,60.3z"/>
	<path d="M202.4,60.3l0.1-0.1h16.1l0.6,1.3l-0.1,0.1h-6.9v4.1l0,0c0.8-0.8,1.7-1.3,2.7-1.3c1.7,0,3,1.6,3,3.4c0,1.5-0.8,2.8-1.9,4.2
		H216l-1.4-1c1.3-1.5,2.1-2.8,2.1-4c0-0.7-0.3-1.1-1-1.1c-1.1,0-2.4,0.9-3.4,2.3l0,5.6l-0.1,0.1l-1.4-0.4l0.1-3.9l0,0
		c-0.8,0.7-1.8,1.1-2.7,1.1c-2.4,0-4.1-1.9-4.1-4c0-2,1.7-3.2,3.8-3.2c1,0,2,0.1,3,0.4v-2.3H203L202.4,60.3z M210.8,65.1
		c-0.6-0.1-1.3-0.2-2-0.2c-1.8,0-3.2,1.3-3.2,2.6c0,1.1,0.7,1.7,1.8,1.7c1.1,0,2.3-0.6,3.5-1.9V65.1z"/>
</g>
<rect x="126.3" y="49.9" width="93" height="0.4"/>
<path d="M126.7,12.2h4.9c0.3,0,0.7,0,1.2,0s0.9,0.1,1.3,0.2c0.9,0.2,1.8,0.5,2.7,1c0.8,0.5,1.6,1.1,2.2,1.8c0.6,0.7,1.1,1.6,1.5,2.5
	c0.4,1,0.5,2,0.5,3.2c0,1.1-0.2,2.1-0.5,3c-0.3,0.9-0.8,1.8-1.3,2.5c-0.6,0.7-1.2,1.4-2,1.9c-0.8,0.5-1.6,0.9-2.5,1.1
	c-0.4,0.1-0.8,0.2-1.3,0.2c-0.5,0-1,0-1.5,0h-4.9L126.7,12.2L126.7,12.2z M131.5,28.1c0.5,0,1,0,1.4,0c0.4,0,0.8-0.1,1.2-0.2
	c0.7-0.2,1.4-0.5,2-0.9c0.6-0.4,1.1-0.9,1.6-1.5c0.4-0.6,0.8-1.3,1-2c0.2-0.8,0.4-1.6,0.4-2.4c0-0.9-0.1-1.8-0.4-2.6
	c-0.3-0.8-0.6-1.5-1.1-2.1c-0.5-0.6-1-1.1-1.6-1.5c-0.6-0.4-1.3-0.7-2.1-0.9c-0.3-0.1-0.7-0.1-1.1-0.2s-0.8,0-1.2,0h-3v14.4
	L131.5,28.1L131.5,28.1z"/>
<path d="M144.7,12.2h1.8v17.5h-1.8V12.2z"/>
<path d="M159.6,29.9c-1.2,0-2.4-0.2-3.5-0.7c-1.1-0.5-2.1-1.1-2.9-1.9c-0.8-0.8-1.5-1.8-1.9-2.8c-0.5-1.1-0.7-2.3-0.7-3.5
	c0-1.2,0.2-2.4,0.7-3.5s1.1-2,1.9-2.9c0.8-0.8,1.8-1.5,2.8-1.9c1.1-0.5,2.2-0.7,3.5-0.7c1.6,0,3,0.3,4.3,1c1.3,0.7,2.3,1.6,3.1,2.8
	l-1.4,1c-0.7-1-1.5-1.8-2.5-2.4c-1-0.6-2.2-0.9-3.6-0.9c-1,0-2,0.2-2.8,0.6c-0.9,0.4-1.6,0.9-2.3,1.6c-0.6,0.7-1.1,1.5-1.5,2.4
	c-0.4,0.9-0.5,1.9-0.5,2.9c0,1,0.2,2,0.5,2.8c0.3,0.9,0.8,1.7,1.5,2.3c0.6,0.7,1.4,1.2,2.2,1.6c0.9,0.4,1.8,0.6,2.9,0.6
	c1.4,0,2.6-0.2,3.6-0.6c1-0.4,1.7-0.9,2.1-1.5v-3.7h-4.6v-1.6h6.3v5.7c-0.2,0.4-0.6,0.8-1,1.2c-0.5,0.4-1,0.7-1.6,1
	c-0.6,0.3-1.3,0.5-2.1,0.7C161.4,29.8,160.5,29.9,159.6,29.9z"/>
<path d="M171.8,12.2h1.8v17.5h-1.8V12.2z"/>
<path d="M181.8,13.7h-4.6v-1.6h11v1.6h-4.6v15.9h-1.8L181.8,13.7L181.8,13.7z"/>
<path d="M198.3,11.3l7.7,18.3h-2l-5.7-13.9l-5.8,13.9h-2L198.3,11.3z"/>
<path d="M209.6,12.2h1.8v15.9h7.8v1.6h-9.6V12.2z"/>
<path d="M126.8,33.8h3.5c0.2,0,0.5,0,0.8,0s0.6,0.1,0.9,0.1c0.7,0.1,1.3,0.4,1.9,0.7c0.6,0.3,1.1,0.8,1.6,1.3
	c0.4,0.5,0.8,1.1,1.1,1.8c0.3,0.7,0.4,1.5,0.4,2.3c0,0.8-0.1,1.5-0.3,2.2c-0.2,0.7-0.6,1.3-1,1.8c-0.4,0.5-0.9,1-1.5,1.3
	c-0.6,0.4-1.2,0.6-1.8,0.8c-0.3,0.1-0.6,0.1-0.9,0.2c-0.3,0-0.7,0-1.1,0h-3.6L126.8,33.8L126.8,33.8z M130.3,45.3c0.4,0,0.7,0,1,0
	c0.3,0,0.6-0.1,0.9-0.1c0.5-0.1,1-0.4,1.4-0.7c0.4-0.3,0.8-0.7,1.1-1.1c0.3-0.4,0.6-0.9,0.7-1.5c0.2-0.5,0.3-1.1,0.3-1.7
	c0-0.7-0.1-1.3-0.3-1.9c-0.2-0.6-0.4-1.1-0.8-1.5c-0.3-0.4-0.7-0.8-1.2-1.1c-0.5-0.3-1-0.5-1.5-0.6c-0.2-0.1-0.5-0.1-0.8-0.1
	c-0.3,0-0.6,0-0.8,0h-2.2v10.4L130.3,45.3L130.3,45.3z"/>
<path d="M146.6,46.5c-0.5,0-1-0.1-1.5-0.2c-0.5-0.1-0.9-0.3-1.3-0.5c-0.4-0.2-0.7-0.5-1-0.8c-0.3-0.3-0.5-0.7-0.6-1.1
	c-0.1-0.3-0.2-0.6-0.2-1s-0.1-0.7-0.1-1.1v-8h1.3v8.1c0,0.3,0,0.5,0,0.8c0,0.3,0.1,0.5,0.1,0.7c0.1,0.3,0.2,0.6,0.4,0.8
	c0.2,0.2,0.4,0.5,0.7,0.6c0.3,0.2,0.6,0.3,0.9,0.4c0.3,0.1,0.7,0.2,1.1,0.2c0.4,0,0.8-0.1,1.1-0.2c0.4-0.1,0.7-0.2,0.9-0.4
	c0.3-0.2,0.5-0.4,0.7-0.6c0.2-0.2,0.3-0.5,0.4-0.8c0.1-0.2,0.1-0.5,0.1-0.7c0-0.3,0-0.5,0-0.7v-8.1h1.3v8c0,0.4,0,0.7,0,1.1
	c0,0.4-0.1,0.7-0.2,1c-0.1,0.4-0.3,0.8-0.6,1.1c-0.3,0.3-0.6,0.6-1,0.9c-0.4,0.2-0.8,0.4-1.3,0.5C147.6,46.5,147.2,46.5,146.6,46.5z
	"/>
<path d="M156.8,33.4l9.2,10.1v-9.7h1.3v13.1l-9.2-10.1v9.7h-1.3V33.4z"/>
<path d="M172.8,33.8h1.3v12.6h-1.3V33.8z"/>
<path d="M183.2,40.9l-4.4-7.1h1.5l3.5,5.8l3.5-5.8h1.5l-4.4,7.1v5.5h-1.3V40.9z"/>
<path d="M198.3,33.2l5.6,13.2h-1.4L201,43h-5.5l-1.4,3.4h-1.4L198.3,33.2z M200.6,41.9l-2.3-5.5l-2.3,5.5H200.6z"/>
<path d="M213.3,33.2l5.6,13.2h-1.4L216,43h-5.5l-1.4,3.4h-1.4L213.3,33.2z M215.5,41.9l-2.3-5.5l-2.3,5.5H215.5z"/>
<ellipse className="st5" cx="223.9" cy="8.8" rx="4.8" ry="4.8"/>
<path d="M221.5,7.4h-1.1V7h2.8v0.4H222v3.4h-0.5L221.5,7.4L221.5,7.4z"/>
<path d="M226.6,9.1c0-0.5-0.1-1.2-0.1-1.6h0c-0.1,0.4-0.3,0.9-0.5,1.4l-0.7,1.8h-0.4l-0.6-1.8c-0.2-0.5-0.3-1-0.4-1.5h0
	c0,0.5,0,1.1-0.1,1.7l-0.1,1.6h-0.5l0.3-3.8h0.6l0.6,1.8c0.2,0.5,0.3,0.9,0.4,1.3h0c0.1-0.4,0.2-0.8,0.4-1.3l0.7-1.8h0.6l0.2,3.8
	h-0.5L226.6,9.1z"/>
</svg>
