<svg width="123" height="36" viewBox="0 0 123 36" fill="none" xmlns="http://www.w3.org/2000/svg">
<path d="M35 10.5002H30V18.0001C30 24.9037 24.4036 30.5001 17.5 30.5001C10.5964 30.5001 5.00004 24.9037 5.00004 18.0001V5.50017C5.00004 2.73869 2.76148 0.500137 0 0.500137V18.0001C0 27.665 7.83496 35.5 17.5 35.5C27.1649 35.5 35 27.665 35 18.0001V10.5002Z" fill="#E27447"/>
<path d="M24.9997 0.500435V18.0004C24.9997 22.1425 21.6418 25.5005 17.4998 25.5005C13.3575 25.5005 9.99969 22.1425 9.99969 18.0004V5.74356C9.99969 2.84786 12.3471 0.500435 15.2428 0.500435H24.9997Z" fill="#E27447"/>
<path d="M35 5.50049H29.9999V0.500456H35V5.50049Z" fill="#E27447"/>
<path d="M58.304 26.24C57.04 26.24 55.904 25.952 54.896 25.376C53.888 24.8 53.088 24.016 52.496 23.024C51.92 22.016 51.632 20.88 51.632 19.616V9.2H54.392V19.592C54.392 20.408 54.56 21.12 54.896 21.728C55.248 22.32 55.72 22.784 56.312 23.12C56.904 23.44 57.568 23.6 58.304 23.6C59.056 23.6 59.72 23.44 60.296 23.12C60.872 22.784 61.328 22.32 61.664 21.728C62 21.12 62.168 20.416 62.168 19.616V9.2H64.928V19.64C64.928 20.904 64.64 22.032 64.064 23.024C63.488 24.016 62.704 24.8 61.712 25.376C60.72 25.952 59.584 26.24 58.304 26.24ZM74.2023 26.24C73.3223 26.24 72.5383 26.056 71.8503 25.688C71.1623 25.304 70.6183 24.784 70.2183 24.128C69.8343 23.472 69.6423 22.728 69.6423 21.896V18.584C69.6423 17.752 69.8423 17.008 70.2423 16.352C70.6423 15.696 71.1863 15.184 71.8743 14.816C72.5623 14.432 73.3383 14.24 74.2023 14.24C75.2423 14.24 76.1783 14.512 77.0103 15.056C77.8583 15.584 78.5223 16.304 79.0023 17.216C79.4983 18.112 79.7463 19.128 79.7463 20.264C79.7463 21.384 79.4983 22.4 79.0023 23.312C78.5223 24.208 77.8583 24.92 77.0103 25.448C76.1783 25.976 75.2423 26.24 74.2023 26.24ZM73.7703 23.744C74.4103 23.744 74.9703 23.6 75.4503 23.312C75.9463 23.008 76.3303 22.592 76.6023 22.064C76.8903 21.536 77.0343 20.928 77.0343 20.24C77.0343 19.552 76.8903 18.944 76.6023 18.416C76.3303 17.888 75.9463 17.48 75.4503 17.192C74.9703 16.888 74.4103 16.736 73.7703 16.736C73.1303 16.736 72.5623 16.888 72.0663 17.192C71.5703 17.48 71.1863 17.888 70.9143 18.416C70.6423 18.944 70.5063 19.552 70.5063 20.24C70.5063 20.928 70.6423 21.536 70.9143 22.064C71.1863 22.592 71.5703 23.008 72.0663 23.312C72.5623 23.6 73.1303 23.744 73.7703 23.744ZM68.0343 30.8V14.48H70.6743V17.576L70.2183 20.384L70.6743 23.168V30.8H68.0343ZM86.9962 26.24C85.6682 26.24 84.5402 26 83.6122 25.52C82.6842 25.04 81.8522 24.336 81.1162 23.408L82.9882 21.536C83.4522 22.208 84.0042 22.736 84.6442 23.12C85.2842 23.488 86.1002 23.672 87.0922 23.672C88.0202 23.672 88.7562 23.48 89.3002 23.096C89.8602 22.712 90.1402 22.184 90.1402 21.512C90.1402 20.952 89.9962 20.496 89.7082 20.144C89.4202 19.792 89.0362 19.504 88.5562 19.28C88.0922 19.04 87.5722 18.832 86.9962 18.656C86.4362 18.464 85.8682 18.256 85.2922 18.032C84.7322 17.792 84.2122 17.496 83.7322 17.144C83.2682 16.792 82.8922 16.336 82.6042 15.776C82.3162 15.216 82.1722 14.504 82.1722 13.64C82.1722 12.648 82.4122 11.808 82.8922 11.12C83.3882 10.416 84.0522 9.88 84.8842 9.512C85.7162 9.144 86.6442 8.96 87.6682 8.96C88.7722 8.96 89.7562 9.176 90.6202 9.608C91.5002 10.04 92.2122 10.592 92.7562 11.264L90.8842 13.136C90.4042 12.592 89.9002 12.192 89.3722 11.936C88.8602 11.664 88.2682 11.528 87.5962 11.528C86.7642 11.528 86.1082 11.696 85.6282 12.032C85.1642 12.368 84.9322 12.84 84.9322 13.448C84.9322 13.96 85.0762 14.376 85.3642 14.696C85.6522 15 86.0282 15.264 86.4922 15.488C86.9722 15.696 87.4922 15.896 88.0522 16.088C88.6282 16.28 89.1962 16.496 89.7562 16.736C90.3322 16.976 90.8522 17.288 91.3162 17.672C91.7962 18.04 92.1802 18.52 92.4682 19.112C92.7562 19.704 92.9002 20.448 92.9002 21.344C92.9002 22.848 92.3642 24.04 91.2922 24.92C90.2362 25.8 88.8042 26.24 86.9962 26.24ZM102.612 26L97.7401 20.12L102.588 14.48H105.732L100.164 20.816L100.284 19.304L105.972 26H102.612ZM95.2921 26V8.72H97.9321V26H95.2921ZM107.152 26V14.48H109.792V26H107.152ZM108.472 12.368C108.024 12.368 107.648 12.216 107.344 11.912C107.056 11.608 106.912 11.232 106.912 10.784C106.912 10.336 107.056 9.96 107.344 9.656C107.648 9.352 108.024 9.2 108.472 9.2C108.936 9.2 109.312 9.352 109.6 9.656C109.888 9.96 110.032 10.336 110.032 10.784C110.032 11.232 109.888 11.608 109.6 11.912C109.312 12.216 108.936 12.368 108.472 12.368ZM112.753 26V8.72H115.393V26H112.753ZM118.331 26V8.72H120.971V26H118.331Z" fill="#131836"/>
</svg>
