<svg width="123" height="36" viewBox="0 0 123 36" fill="none" xmlns="http://www.w3.org/2000/svg">
<path d="M35 10.7324H30V18.2323C30 25.1359 24.4036 30.7323 17.5 30.7323C10.5964 30.7323 5.00004 25.1359 5.00004 18.2323V5.73235C5.00004 2.97087 2.76148 0.732315 0 0.732315V18.2323C0 27.8972 7.83496 35.7322 17.5 35.7322C27.1649 35.7322 35 27.8972 35 18.2323V10.7324Z" fill="#E27447"/>
<path d="M24.9997 0.732613V18.2326C24.9997 22.3747 21.6419 25.7327 17.4998 25.7327C13.3576 25.7327 9.99976 22.3747 9.99976 18.2326V5.97574C9.99976 3.08004 12.3472 0.732613 15.2429 0.732613H24.9997Z" fill="#E27447"/>
<path d="M35 5.73267H30V0.732634H35V5.73267Z" fill="#E27447"/>
<path d="M58.304 26.9724C57.04 26.9724 55.904 26.6844 54.896 26.1084C53.888 25.5324 53.088 24.7484 52.496 23.7564C51.92 22.7484 51.632 21.6124 51.632 20.3484V9.93242H54.392V20.3244C54.392 21.1404 54.56 21.8524 54.896 22.4604C55.248 23.0524 55.72 23.5164 56.312 23.8524C56.904 24.1724 57.568 24.3324 58.304 24.3324C59.056 24.3324 59.72 24.1724 60.296 23.8524C60.872 23.5164 61.328 23.0524 61.664 22.4604C62 21.8524 62.168 21.1484 62.168 20.3484V9.93242H64.928V20.3724C64.928 21.6364 64.64 22.7644 64.064 23.7564C63.488 24.7484 62.704 25.5324 61.712 26.1084C60.72 26.6844 59.584 26.9724 58.304 26.9724ZM74.2023 26.9724C73.3223 26.9724 72.5383 26.7884 71.8503 26.4204C71.1623 26.0364 70.6183 25.5164 70.2183 24.8604C69.8343 24.2044 69.6423 23.4604 69.6423 22.6284V19.3164C69.6423 18.4844 69.8423 17.7404 70.2423 17.0844C70.6423 16.4284 71.1863 15.9164 71.8743 15.5484C72.5623 15.1644 73.3383 14.9724 74.2023 14.9724C75.2423 14.9724 76.1783 15.2444 77.0103 15.7884C77.8583 16.3164 78.5223 17.0364 79.0023 17.9484C79.4983 18.8444 79.7463 19.8604 79.7463 20.9964C79.7463 22.1164 79.4983 23.1324 79.0023 24.0444C78.5223 24.9404 77.8583 25.6524 77.0103 26.1804C76.1783 26.7084 75.2423 26.9724 74.2023 26.9724ZM68.0343 31.5324V15.2124H70.6743V18.3084L70.2183 21.1164L70.6743 23.9004V31.5324H68.0343ZM73.7703 24.4764C74.4103 24.4764 74.9703 24.3324 75.4503 24.0444C75.9463 23.7404 76.3303 23.3244 76.6023 22.7964C76.8903 22.2684 77.0343 21.6604 77.0343 20.9724C77.0343 20.2844 76.8903 19.6764 76.6023 19.1484C76.3303 18.6204 75.9463 18.2124 75.4503 17.9244C74.9703 17.6204 74.4103 17.4684 73.7703 17.4684C73.1303 17.4684 72.5623 17.6204 72.0663 17.9244C71.5703 18.2124 71.1863 18.6204 70.9143 19.1484C70.6423 19.6764 70.5063 20.2844 70.5063 20.9724C70.5063 21.6604 70.6423 22.2684 70.9143 22.7964C71.1863 23.3244 71.5703 23.7404 72.0663 24.0444C72.5623 24.3324 73.1303 24.4764 73.7703 24.4764ZM86.9962 26.9724C85.6682 26.9724 84.5402 26.7324 83.6122 26.2524C82.6842 25.7724 81.8522 25.0684 81.1162 24.1404L82.9882 22.2684C83.4522 22.9404 84.0042 23.4684 84.6442 23.8524C85.2842 24.2204 86.1002 24.4044 87.0922 24.4044C88.0202 24.4044 88.7562 24.2124 89.3002 23.8284C89.8602 23.4444 90.1402 22.9164 90.1402 22.2444C90.1402 21.6844 89.9962 21.2284 89.7082 20.8764C89.4202 20.5244 89.0362 20.2364 88.5562 20.0124C88.0922 19.7724 87.5722 19.5644 86.9962 19.3884C86.4362 19.1964 85.8682 18.9884 85.2922 18.7644C84.7322 18.5244 84.2122 18.2284 83.7322 17.8764C83.2682 17.5244 82.8922 17.0684 82.6042 16.5084C82.3162 15.9484 82.1722 15.2364 82.1722 14.3724C82.1722 13.3804 82.4122 12.5404 82.8922 11.8524C83.3882 11.1484 84.0522 10.6124 84.8842 10.2444C85.7162 9.87642 86.6442 9.69242 87.6682 9.69242C88.7722 9.69242 89.7562 9.90842 90.6202 10.3404C91.5002 10.7724 92.2122 11.3244 92.7562 11.9964L90.8842 13.8684C90.4042 13.3244 89.9002 12.9244 89.3722 12.6684C88.8602 12.3964 88.2682 12.2604 87.5962 12.2604C86.7642 12.2604 86.1082 12.4284 85.6282 12.7644C85.1642 13.1004 84.9322 13.5724 84.9322 14.1804C84.9322 14.6924 85.0762 15.1084 85.3642 15.4284C85.6522 15.7324 86.0282 15.9964 86.4922 16.2204C86.9722 16.4284 87.4922 16.6284 88.0522 16.8204C88.6282 17.0124 89.1962 17.2284 89.7562 17.4684C90.3322 17.7084 90.8522 18.0204 91.3162 18.4044C91.7962 18.7724 92.1802 19.2524 92.4682 19.8444C92.7562 20.4364 92.9002 21.1804 92.9002 22.0764C92.9002 23.5804 92.3642 24.7724 91.2922 25.6524C90.2362 26.5324 88.8042 26.9724 86.9962 26.9724ZM102.612 26.7324L97.7401 20.8524L102.588 15.2124H105.732L100.164 21.5484L100.284 20.0364L105.972 26.7324H102.612ZM95.2921 26.7324V9.45242H97.9321V26.7324H95.2921ZM107.152 26.7324V15.2124H109.792V26.7324H107.152ZM108.472 13.1004C108.024 13.1004 107.648 12.9484 107.344 12.6444C107.056 12.3404 106.912 11.9644 106.912 11.5164C106.912 11.0684 107.056 10.6924 107.344 10.3884C107.648 10.0844 108.024 9.93242 108.472 9.93242C108.936 9.93242 109.312 10.0844 109.6 10.3884C109.888 10.6924 110.032 11.0684 110.032 11.5164C110.032 11.9644 109.888 12.3404 109.6 12.6444C109.312 12.9484 108.936 13.1004 108.472 13.1004ZM112.753 26.7324V9.45242H115.393V26.7324H112.753ZM118.331 26.7324V9.45242H120.971V26.7324H118.331Z" fill="white"/>
</svg>
