<svg width="60" height="61" viewBox="0 0 60 61" fill="none" xmlns="http://www.w3.org/2000/svg">
<path d="M47.4794 47.9087V57.0055C47.4794 58.1571 46.5458 59.0907 45.3942 59.0907H14.606C13.4544 59.0907 12.5208 58.1571 12.5208 57.0055V47.9087C12.5208 39.9322 18.987 33.4659 26.9635 33.4659H33.0366C41.0131 33.4659 47.4794 39.9322 47.4794 47.9087Z" fill="#E9DECE"/>
<path d="M34.9423 26.4446V35.8233C34.9423 38.7104 32.6018 41.0508 29.7148 41.0508C26.8278 41.0508 24.4873 38.7104 24.4873 35.8233V26.4446H34.9423Z" fill="white"/>
<path d="M34.9423 26.4446V35.8233C34.9423 38.7104 32.6018 41.0508 29.7148 41.0508C26.8278 41.0508 24.4873 38.7104 24.4873 35.8233V26.4446H34.9423Z" fill="white"/>
<path d="M41.8168 14.1343V17.8839H16.6609V14.1343C16.6609 7.39504 22.1242 1.93176 28.8634 1.93176H29.6144C36.3537 1.93176 41.8168 7.39504 41.8168 14.1343Z" fill="#E9DECE"/>
<path d="M39.1187 16.5696V22.9915C39.1187 28.4926 34.6591 32.9522 29.158 32.9522C23.6568 32.9522 19.1973 28.4926 19.1973 22.9915V16.5696C19.1973 14.6183 20.7791 13.0365 22.7304 13.0365H35.5857C37.5369 13.0365 39.1187 14.6183 39.1187 16.5696Z" fill="white"/>
<path d="M19.1973 17.8649V23.571H17.8413C16.2656 23.571 14.9883 22.2936 14.9883 20.7179C14.9883 19.1422 16.2656 17.8649 17.8413 17.8649H19.1973Z" fill="white"/>
<path d="M39.1187 17.8649V23.571H40.4746C42.0503 23.571 43.3277 22.2936 43.3277 20.7179C43.3277 19.1422 42.0503 17.8649 40.4746 17.8649H39.1187Z" fill="white"/>
<path d="M35.657 32.9847V31.4409C37.8676 29.7365 39.393 27.1924 39.7466 24.2854H40.4744C42.4415 24.2854 44.042 22.685 44.042 20.7179C44.042 19.5169 43.4437 18.455 42.5314 17.8081V14.1343C42.5314 7.01198 36.7365 1.21741 29.6142 1.21741H28.8634C21.7411 1.21741 15.9461 7.01198 15.9461 14.1343V17.7008C14.9434 18.333 14.2738 19.4474 14.2738 20.7179C14.2738 22.685 15.8742 24.2854 17.8413 24.2854H18.5691C18.9794 27.6588 20.9675 30.545 23.773 32.1933V33.109C16.9452 34.5805 11.8059 40.6474 11.8059 47.9087V57.0055C11.8059 58.5492 13.0619 59.8052 14.606 59.8052H45.3941C46.9381 59.8052 48.1941 58.5492 48.1941 57.0055V47.9087C48.194 40.4451 42.7694 34.2301 35.657 32.9847ZM40.4744 22.8563H39.8331V18.5985H40.665C41.7536 18.6966 42.613 19.6038 42.613 20.7179C42.613 21.897 41.6533 22.8563 40.4744 22.8563ZM17.3752 17.1696V14.1343C17.3752 7.79983 22.5287 2.64639 28.8634 2.64639H29.6142C35.9489 2.64639 41.1023 7.79983 41.1023 14.1343V17.1696C41.0436 17.1686 39.7501 17.149 39.8329 17.1503V16.5696C39.8329 14.2276 37.9277 12.3221 35.5855 12.3221H22.7302C20.3879 12.3221 18.4828 14.2276 18.4828 16.5696V17.1503C17.713 17.1498 17.7942 17.1459 17.3752 17.1696ZM15.7029 20.7179C15.7029 19.6039 16.5622 18.6967 17.6509 18.5985H18.4828V22.8563H17.8414C16.6624 22.8563 15.7029 21.897 15.7029 20.7179ZM19.9119 22.9914C19.9119 21.7154 19.9119 18.8162 19.9119 16.5694C19.9119 15.0153 21.1762 13.751 22.7304 13.751H35.5856C37.1397 13.751 38.4041 15.0153 38.4041 16.5694V17.8648V22.9915C38.4041 28.0898 34.2565 32.2376 29.1583 32.2376C24.0602 32.2376 19.9119 28.0897 19.9119 22.9914ZM34.228 32.3831V35.8232C34.228 41.7958 25.2021 41.7898 25.2021 35.8232V32.8979C28.226 34.1099 31.5172 33.8524 34.228 32.3831ZM46.7649 57.0055C46.7649 57.7613 46.1498 58.3762 45.394 58.3762H42.0151V48.2001C42.0151 47.8054 41.6953 47.4856 41.3006 47.4856C40.9059 47.4856 40.5861 47.8054 40.5861 48.2001V58.3762H19.4138V48.2001C19.4138 47.8054 19.094 47.4856 18.6993 47.4856C18.3047 47.4856 17.9849 47.8054 17.9849 48.2001V58.3762H14.606C13.8501 58.3762 13.235 57.7613 13.235 57.0055V47.9087C13.235 41.4389 17.7393 36.0149 23.7731 34.5711V35.8232C23.7731 43.6878 35.6571 43.678 35.6571 35.8232V34.4491C41.9754 35.6774 46.765 41.2368 46.765 47.9088L46.7649 57.0055Z" fill="#585D69"/>
<path d="M33.955 20.401C34.3497 20.401 34.6695 20.0812 34.6695 19.6866V18.8286C34.6695 18.4339 34.3497 18.1141 33.955 18.1141C33.5603 18.1141 33.2405 18.4339 33.2405 18.8286V19.6866C33.2405 20.0812 33.5603 20.401 33.955 20.401Z" fill="#585D69"/>
<path d="M25.076 19.6866V18.8286C25.076 18.4339 24.7562 18.1141 24.3615 18.1141C23.9668 18.1141 23.647 18.4339 23.647 18.8286V19.6866C23.647 20.0812 23.9668 20.401 24.3615 20.401C24.7562 20.401 25.076 20.0812 25.076 19.6866Z" fill="#585D69"/>
<path d="M34.3402 24.8026C34.3402 24.1079 33.7753 23.5427 33.0804 23.5427H25.2357C24.5407 23.5427 23.9758 24.1079 23.9758 24.8026C23.9758 27.6601 26.3008 29.9849 29.1583 29.9849C32.0158 29.9849 34.3402 27.6602 34.3402 24.8026ZM25.4087 24.9718H32.9073C32.8186 26.963 31.1707 28.5559 29.1583 28.5559C27.1454 28.5559 25.4975 26.963 25.4087 24.9718Z" fill="#585D69"/>
</svg>
