<svg width="60" height="61" viewBox="0 0 60 61" fill="none" xmlns="http://www.w3.org/2000/svg">
<path d="M54.5955 19.6853V48.7437H5.1377V19.6853C5.1377 16.0918 8.05086 13.1786 11.6444 13.1786H48.0888C51.6823 13.1786 54.5955 16.0918 54.5955 19.6853Z" fill="white"/>
<path d="M58.2475 49.3016V48.7518H1.48633V49.3016C1.48633 51.8823 3.57836 53.9743 6.15906 53.9743H53.5748C56.1555 53.9743 58.2475 51.8823 58.2475 49.3016Z" fill="#E9DECE"/>
<path d="M40.8676 33.6313C46.9463 27.5527 46.9463 17.6973 40.8676 11.6187C34.789 5.54004 24.9336 5.54004 18.855 11.6187C12.7763 17.6973 12.7763 27.5527 18.855 33.6313C24.9336 39.71 34.789 39.71 40.8676 33.6313Z" fill="#E9DECE"/>
<path d="M35.2355 24.2052L29.1761 28.3421C27.9055 29.2095 26.1827 28.3001 26.182 26.7618L26.1777 18.4882C26.1769 16.9493 27.9002 16.0383 29.1714 16.9056L35.235 21.0425C36.3489 21.8023 36.3491 23.4449 35.2355 24.2052Z" fill="white"/>
<path d="M58.3807 47.8285H55.6441V19.6884C55.6441 15.5946 52.3129 12.2634 48.2191 12.2634H46.7368C46.2307 12.2634 45.8213 12.6729 45.8213 13.1789C45.8213 13.6849 46.2307 14.0944 46.7368 14.0944H48.2191C51.3036 14.0944 53.8131 16.6039 53.8131 19.6884V47.8285H6.18859V19.6884C6.18859 16.6039 8.6977 14.0944 11.7822 14.0944H13.2654C13.771 14.0944 14.1809 13.6849 14.1809 13.1789C14.1809 12.6729 13.771 12.2634 13.2654 12.2634H11.7822C7.68836 12.2634 4.35754 15.5946 4.35754 19.6884V47.8285H1.61957C1.11402 47.8285 0.704102 48.238 0.704102 48.744V49.2939C0.704102 52.3747 3.21098 54.8816 6.2923 54.8816H53.7085C56.7893 54.8816 59.2962 52.3747 59.2962 49.2939V48.744C59.2962 48.238 58.8868 47.8285 58.3807 47.8285ZM53.7085 53.0507H6.2923C4.34418 53.0507 2.73719 51.5603 2.5525 49.6595C2.64473 49.6595 61.1498 49.66 57.4473 49.6595C57.2632 51.5603 55.6566 53.0507 53.7085 53.0507Z" fill="#585D69"/>
<path d="M30.0002 6.14099C20.9114 6.14099 13.5171 13.5356 13.5171 22.6245C13.5171 31.7133 20.9114 39.1071 30.0002 39.1071C39.089 39.1071 46.4837 31.7134 46.4837 22.6245C46.4837 13.5355 39.089 6.14099 30.0002 6.14099ZM30.0002 37.2761C21.9212 37.2761 15.3481 30.703 15.3481 22.6245C15.3481 14.545 21.9212 7.97193 30.0002 7.97193C38.0797 7.97193 44.6528 14.545 44.6528 22.6245C44.6528 30.703 38.0797 37.2761 30.0002 37.2761Z" fill="#585D69"/>
<path d="M35.8845 20.2865L29.8206 16.1489C28.9516 15.5561 27.8327 15.4918 26.9029 15.9853C25.9727 16.477 25.395 17.4363 25.3955 18.4886L25.3995 26.763C25.4 27.8144 25.9784 28.7728 26.9086 29.2637C27.8441 29.7561 28.9589 29.6888 29.8254 29.0983L35.8844 24.9616C36.6577 24.4342 37.1191 23.5597 37.1191 22.6245C37.1192 21.6883 36.6579 20.814 35.8845 20.2865ZM34.8528 23.4487L28.7929 27.5854C28.4813 27.7964 28.096 27.8197 27.7634 27.6445C27.4299 27.4684 27.2305 27.1385 27.2305 26.7621L27.2266 18.4877C27.2266 18.1104 27.4254 17.7797 27.7589 17.6035C28.0936 17.4277 28.4779 17.4494 28.7889 17.6617L34.8528 21.7993C35.1299 21.988 35.2881 22.2893 35.2881 22.6245C35.2882 22.9588 35.1299 23.2601 34.8528 23.4487Z" fill="#585D69"/>
</svg>
