<svg width="61" height="61" viewBox="0 0 61 61" fill="none" xmlns="http://www.w3.org/2000/svg">
<path d="M35.6058 40.1102C44.2836 40.1102 51.3184 47.5834 51.3184 56.8019V58.8919H9.34814V56.8019C9.34814 47.5834 16.3829 40.1102 25.0608 40.1102L30.3333 49.5011L35.6058 40.1102Z" fill="white"/>
<path d="M41.6592 25.4802C41.6592 31.9006 36.4573 37.1025 30.0369 37.1025C23.6164 37.1025 18.4146 31.9005 18.4146 25.4802C18.4146 19.0728 23.6164 13.871 30.0369 13.871C36.4573 13.871 41.6592 19.0727 41.6592 25.4802Z" fill="white"/>
<path d="M42.1569 13.4253V21.3788C42.1569 23.0429 40.7943 24.4842 38.9074 24.8118C32.88 25.8601 26.8527 25.8601 20.8253 24.8118C18.9385 24.4843 17.5757 23.043 17.5757 21.3788V13.4253H42.1569Z" fill="#E9DECE"/>
<path d="M47.5686 10.713L29.8665 17.8673L12.1643 10.713L29.8665 2.13049L47.5686 10.713Z" fill="#E9DECE"/>
<path d="M47.2702 18.3429L49.9751 23.1046H45.1499L47.2702 18.3429Z" fill="white"/>
<path d="M8.43262 56.8022V58.892C8.43262 59.3976 8.84254 59.8075 9.34809 59.8075H51.3183C51.8239 59.8075 52.2338 59.3976 52.2338 58.892V56.8022C52.2338 47.4206 45.2635 39.7517 36.5213 39.2439V36.1901C40.1425 33.9892 42.5745 30.0183 42.5745 25.48C42.5745 24.8288 42.5165 24.192 42.4178 23.5685C42.8357 22.9184 43.0724 22.1686 43.0724 21.379V13.5176L46.3545 12.1912V18.1484L44.3134 22.7322C44.0443 23.3364 44.4872 24.0201 45.1498 24.0201H49.975C50.6737 24.0201 51.1185 23.2639 50.7712 22.6522L48.1855 18.1011V11.38C48.675 10.9266 48.5341 10.1634 47.9678 9.88927L30.2657 1.30681C30.0136 1.18435 29.7195 1.18435 29.4673 1.30681L11.7652 9.88916C11.0532 10.2339 11.0856 11.264 11.8216 11.5619L16.6601 13.5174V21.379C16.6601 22.3274 17.0151 23.2093 17.602 23.939C17.5359 24.4437 17.4987 24.9572 17.4987 25.48C17.4987 30.2643 20.1945 34.428 24.1451 36.5408V39.2438C15.4028 39.7517 8.43262 47.4204 8.43262 56.8022ZM50.4029 56.8022V57.9766H10.2636V56.8022C10.2636 48.2922 16.6154 41.3343 24.5303 41.0357L29.5348 49.9494C29.8593 50.526 30.807 50.526 31.1316 49.9494L36.1361 41.0357C44.0511 41.3342 50.4029 48.2922 50.4029 56.8022ZM48.402 22.189H46.5598L47.3693 20.371L48.402 22.189ZM29.8666 3.14806L45.3135 10.637L29.8666 16.8797L14.4196 10.637L29.8666 3.14806ZM29.5237 18.7162C29.7442 18.8049 29.9886 18.805 30.2095 18.7162C32.4371 17.8327 24.4852 20.9865 41.2416 14.3408V21.3792C41.2416 22.5951 40.1942 23.6594 38.7508 23.9098C32.8554 24.9353 26.8773 24.9353 20.982 23.9098C19.5389 23.659 18.4912 22.5951 18.4912 21.3792V14.3408C35.2482 20.9865 27.2959 17.8326 29.5237 18.7162ZM19.3391 25.2837C23.1756 27.0666 37.8557 26.7211 40.7282 25.1254C40.945 31.252 35.9951 36.1867 30.0368 36.1867C24.0377 36.1867 19.2079 31.233 19.3391 25.2837ZM34.6904 37.1123V39.8705L30.3332 47.631L25.9761 39.8705V37.3298C28.8865 38.3302 31.9218 38.224 34.6904 37.1123Z" fill="#585D69"/>
</svg>
