<svg width="61" height="61" viewBox="0 0 61 61" fill="none" xmlns="http://www.w3.org/2000/svg">
<path d="M35.6764 11.9456V16.6114H9.21908C7.88725 16.6114 6.80584 17.7018 6.80584 19.0336V38.3044H2.14014V14.3589C2.14014 13.0361 3.22166 11.9456 4.55338 11.9456H35.6764Z" fill="#FFEFEA"/>
<path d="M59.3448 28.2578V50.8894C59.3448 52.1587 58.3168 53.1865 57.0566 53.1865H47.4748L39.4931 57.6109V53.1865H27.623V47.6717H51.5417C52.8109 47.6717 53.8389 46.6527 53.8389 45.3835V28.2578H59.3448Z" fill="#E9DECE"/>
<path d="M59.2686 27.4511H36.2667V11.8162C36.2667 11.4461 35.9664 11.1459 35.5964 11.1459H4.47828C2.77707 11.1459 1.39355 12.5294 1.39355 14.2301V38.1722C1.39355 38.5423 1.69379 38.8426 2.06387 38.8426H9.7591L16.1293 43.3938C16.3377 43.5429 16.6085 43.5565 16.8249 43.4444C17.0484 43.3297 17.1889 43.0992 17.1889 42.8483V38.8427H26.8804V53.0513C26.8804 53.4214 27.1807 53.7216 27.5507 53.7216H38.748V57.4745C38.748 57.712 38.8737 57.9315 39.078 58.0519C39.2766 58.1695 39.5296 58.1788 39.7432 58.0611L47.5755 53.7216H56.9764C58.6095 53.7216 59.9389 52.3927 59.9389 50.7591V28.1215C59.939 27.7515 59.6387 27.4511 59.2686 27.4511ZM16.5187 37.5018C16.1486 37.5018 15.8484 37.802 15.8484 38.1721V41.5454L10.3632 37.6266C10.2498 37.5454 10.1136 37.5018 9.97391 37.5018H2.7343V14.2301C2.7343 13.2686 3.51641 12.4866 4.47828 12.4866H34.9258V35.7482C34.9258 36.7154 34.1394 37.5018 33.1722 37.5018H16.5187ZM58.5983 50.7591C58.5983 51.6534 57.8711 52.3809 56.9765 52.3809H47.402C47.2885 52.3809 47.1767 52.4097 47.0772 52.4647L40.089 56.3368V53.0513C40.089 52.6812 39.7888 52.381 39.4187 52.381H28.2214V38.8426H33.1723C34.8788 38.8426 36.2667 37.4542 36.2667 35.7482V28.7919H58.5983V50.7591Z" fill="#585D69"/>
<path d="M41.3548 6.16079C41.0928 5.89888 40.6686 5.89888 40.4068 6.16079L38.5685 7.99946C38.3066 8.26138 38.3066 8.6856 38.5685 8.94739C38.8304 9.20931 39.2545 9.20931 39.5164 8.94739L41.3548 7.10872C41.6167 6.84692 41.6167 6.42271 41.3548 6.16079Z" fill="#585D69"/>
<path d="M36.0469 3.54788V6.14815C36.0469 6.51823 36.3471 6.81846 36.7172 6.81846C37.0873 6.81846 37.3875 6.51823 37.3875 6.14815V3.54788C37.3875 3.1778 37.0873 2.87756 36.7172 2.87756C36.3471 2.87756 36.0469 3.1778 36.0469 3.54788Z" fill="#585D69"/>
<path d="M41.3676 11.4697H43.9679C44.3379 11.4697 44.6382 11.1694 44.6382 10.7993C44.6382 10.4293 44.3379 10.129 43.9679 10.129H41.3676C40.9975 10.129 40.6973 10.4293 40.6973 10.7993C40.6971 11.1694 40.9975 11.4697 41.3676 11.4697Z" fill="#585D69"/>
<path d="M39.4551 36.5495H45.1847C45.0928 37.9743 44.7118 39.3885 44.1283 40.6554C43.8536 40.1548 43.592 39.6419 43.3506 39.1118C43.197 38.7744 42.7973 38.6278 42.4629 38.7792C42.126 38.9324 41.9767 39.33 42.1304 39.6669C42.5053 40.4902 42.9297 41.2711 43.3802 42.0268C42.4551 43.4665 41.2526 44.5778 39.9359 45.0591C39.5885 45.1864 39.4096 45.5714 39.537 45.9189C39.6642 46.2662 40.0475 46.4452 40.3968 46.3186C41.8311 45.7942 43.1319 44.6903 44.1672 43.2555C44.641 43.9455 45.1374 44.6121 45.676 45.2302C45.9197 45.5099 46.3431 45.5379 46.6222 45.2952C46.9006 45.0521 46.9303 44.6287 46.6867 44.3495C46.0587 43.6286 45.4792 42.8487 44.9447 42.0227C45.8398 40.3946 46.416 38.4893 46.5255 36.5495H47.7298C48.0999 36.5495 48.4001 36.2493 48.4001 35.8792C48.4001 35.5091 48.0999 35.2089 47.7298 35.2089H39.455C39.0849 35.2089 38.7847 35.5091 38.7847 35.8792C38.7847 36.2493 39.085 36.5495 39.4551 36.5495Z" fill="#585D69"/>
<path d="M19.4698 18.9244C19.3816 18.645 19.1232 18.4548 18.8299 18.4548C18.5366 18.4548 18.2783 18.6451 18.1901 18.9244L14.902 29.4038C14.7912 29.7573 14.9876 30.1335 15.3411 30.2444C15.6935 30.3542 16.0705 30.1594 16.1817 29.8053L16.7674 27.9386H20.892L21.4774 29.8053C21.5883 30.1579 21.9601 30.3552 22.318 30.2444C22.6716 30.1335 22.868 29.7573 22.7571 29.4038L19.4698 18.9244ZM17.1879 26.5978L18.8299 21.3645L20.4714 26.5978H17.1879Z" fill="#585D69"/>
</svg>
